<svg xmlns="http://www.w3.org/2000/svg" id="Component_343_1" width="80" height="80" data-name="Component 343 – 1" viewBox="0 0 80 80">
    <defs>
        <style>
            .cls-1{fill:#77a9fa}.cls-2{fill:#2a3a8d}.cls-4{fill:rgba(0,49,124,.18)}
        </style>
    </defs>
    <g id="Group_29191" data-name="Group 29191">
        <g id="Component_344_1" data-name="Component 344 – 1">
            <g id="Group_29192" data-name="Group 29192">
                <g id="Group_21902" data-name="Group 21902" transform="translate(5 4)">
                    <g id="Group_21896" data-name="Group 21896" transform="translate(0 16.233)">
                        <path id="Path_21704" d="M317.082 281.817a40.953 40.953 0 0 1-1.82 12.118 18.118 18.118 0 0 0-11.682-13.495 41.007 41.007 0 0 1 11.433-1.619h.021a2.049 2.049 0 0 1 2.035 2.021c.006.324.013.649.013.975z" class="cls-1" data-name="Path 21704" transform="translate(-260.478 -278.82)"/>
                        <path id="Path_21705" d="M258 308.78a19.783 19.783 0 0 1 2.879.208 40.637 40.637 0 0 0-2.858 6.291 20.135 20.135 0 0 0-12.916.514.9.9 0 0 1-.949-1.478A20.012 20.012 0 0 1 258 308.78z" class="cls-2" data-name="Path 21705" transform="translate(-242.093 -288.046)"/>
                        <path id="Path_21706" d="M290.186 336.832a20.049 20.049 0 0 1-5.52 13.839.9.9 0 0 1-1.48-.947 20.063 20.063 0 0 0 1.332-7.217 20.351 20.351 0 0 0-.63-5.024 40.739 40.739 0 0 0 6.173-2.872 19.561 19.561 0 0 1 .125 2.221z" class="cls-2" data-name="Path 21706" transform="translate(-254.177 -296.001)"/>
                        <path id="Path_21707" d="M277.7 315.47a17.749 17.749 0 0 1-3.619 9.2 17.079 17.079 0 0 1-12.1 6.63 17.629 17.629 0 0 1 6.256-11.924 16.836 16.836 0 0 1 9.463-3.906z" class="cls-2" data-name="Path 21707" transform="translate(-247.667 -290.107)"/>
                        <path id="Path_21708" fill="#fadda5" d="M267.694 335.668a11.4 11.4 0 0 1-.206 2.188 11.874 11.874 0 0 1-9.42 9.48 11.728 11.728 0 0 1-2.255.217c-.095 0-.19 0-.285-.008a11.535 11.535 0 0 0 1.072-3.126 11.8 11.8 0 0 0 .218-2.259 11.571 11.571 0 0 0-.119-1.669 11.823 11.823 0 0 1-6.995 3.913 11.251 11.251 0 0 1-1.768.162h-.194a11.687 11.687 0 0 1-3.154-.428 11.786 11.786 0 0 1-.309-2.682q0-.267.012-.534a10.71 10.71 0 0 1 .194-1.65 11.852 11.852 0 0 1 4.221-7.066 11.652 11.652 0 0 0-2.017-.174 11.8 11.8 0 0 0-2.259.218 11.611 11.611 0 0 0-3.126 1.072c-.008-.095-.008-.19-.008-.285a11.886 11.886 0 0 1 9.918-11.714 11.537 11.537 0 0 1 1.966-.166 11.87 11.87 0 0 1 4.82 1.016c-.376.565-.724 1.124-1.048 1.669-.162.269-.316.534-.466.8-2.5 4.479-3.256 8.222-1.6 9.768 1.583 1.475 5.021.617 9.068-1.919.344-.213.689-.439 1.04-.68.527-.352 1.057-.736 1.595-1.143a11.807 11.807 0 0 1 1.105 5z" data-name="Path 21708" transform="translate(-241.298 -291.857)"/>
                        <path id="Path_21709" d="M303.172 294.655a41.012 41.012 0 0 1-15.744 21.5q-1.526 1.069-3.156 1.993a40.733 40.733 0 0 1-6.173 2.872 19.934 19.934 0 0 0-3.3-6.921c.221-.284.436-.581.63-.879a17.7 17.7 0 0 0 2.99-8.318 16.769 16.769 0 0 0-8.222 2.962c-.429.291-.837.609-1.239.941a19.866 19.866 0 0 0-4.637-2.035 40.635 40.635 0 0 1 2.858-6.291c.1-.166.187-.332.291-.5a41 41 0 0 1 24.02-18.819 18.118 18.118 0 0 1 11.682 13.495z" class="cls-2" data-name="Path 21709" transform="translate(-248.388 -279.541)"/>
                        <circle id="Ellipse_1068" cx="3.337" cy="3.337" r="3.337" class="cls-1" data-name="Ellipse 1068" transform="translate(39.184 10.5)"/>
                    </g>
                    <g id="Group_21895" data-name="Group 21895" transform="translate(16.61)">
                        <circle id="Ellipse_1039" cx="4.824" cy="4.824" r="4.824" class="cls-4" data-name="Ellipse 1039" transform="translate(0 9.649)"/>
                        <circle id="Ellipse_1040" cx="2.632" cy="2.632" r="2.632" class="cls-4" data-name="Ellipse 1040" transform="translate(17.543 8.772)"/>
                        <circle id="Ellipse_1041" cx="3.947" cy="3.947" r="3.947" class="cls-4" data-name="Ellipse 1041" transform="translate(30.701)"/>
                        <circle id="Ellipse_1042" cx="2.632" cy="2.632" r="2.632" class="cls-4" data-name="Ellipse 1042" transform="translate(48.244 18.421)"/>
                    </g>
                </g>
                <path id="Rectangle_5155" fill="none" d="M0 0H80V80H0z" data-name="Rectangle 5155"/>
            </g>
        </g>
    </g>
</svg>
