<svg xmlns="http://www.w3.org/2000/svg" id="prefix__hourglass_empty-24px_1_" width="18" height="18" data-name="hourglass_empty-24px (1)" viewBox="0 0 18 18">
    <path id="prefix__Path_21591" fill="none" d="M0 0h18v18H0z" data-name="Path 21591"/>
    <path id="prefix__Path_21592" fill="rgba(0,0,0,0.6)" d="M7.5 2A1.505 1.505 0 0 0 6 3.5v2.376a1.5 1.5 0 0 0 .443 1.065L9.005 9.5l-2.569 2.562A1.527 1.527 0 0 0 6 13.126V15.5A1.505 1.505 0 0 0 7.5 17h6.01a1.505 1.505 0 0 0 1.5-1.5v-2.374a1.5 1.5 0 0 0-.436-1.057L12.01 9.5l2.562-2.549a1.5 1.5 0 0 0 .443-1.065V3.5a1.505 1.505 0 0 0-1.5-1.5zm6.01 10.871v1.874a.753.753 0 0 1-.751.75H8.254a.753.753 0 0 1-.751-.75v-1.874l3.005-3zm-3.002-3.748l-3.005-3V4.249a.753.753 0 0 1 .751-.75h4.508a.753.753 0 0 1 .751.75v1.875z" data-name="Path 21592" transform="translate(-1.508 -.497)"/>
</svg>
